<?xml version="1.0" encoding="utf-8"?>
<!-- Generator: Adobe Illustrator 14.0.0, SVG Export Plug-In . SVG Version: 6.00 Build 43363)  -->
<!DOCTYPE svg PUBLIC "-//W3C//DTD SVG 1.1//EN" "http://www.w3.org/Graphics/SVG/1.1/DTD/svg11.dtd">
<svg version="1.1" xmlns="http://www.w3.org/2000/svg" xmlns:xlink="http://www.w3.org/1999/xlink" x="0px" y="0px"
	 width="841.89px" height="595.28px" viewBox="0 0 841.89 595.28" enable-background="new 0 0 841.89 595.28" xml:space="preserve">
<g id="A-DETL-GENF">
	<g id="HATCH">
		<polygon fill-rule="evenodd" clip-rule="evenodd" points="72.022,390.217 74.361,390.217 74.361,390.217 2.723,297.78
			2.723,297.78 74.361,205.343 74.361,205.343 72.022,205.343 72.022,205.343 2.261,295.359 2.261,295.359 2.261,205.343
			2.261,205.343 0.412,205.343 0.412,205.343 0.412,390.217 0.412,390.217 2.261,390.217 2.261,390.217 2.261,300.202
			2.261,300.202 72.022,390.217 		"/>
	</g>
	<g id="HATCH_1_">
		<polygon fill-rule="evenodd" clip-rule="evenodd" points="141.378,390.217 141.378,388.368 141.378,388.368 129.361,388.368
			129.361,388.368 129.361,298.705 129.361,298.705 141.378,298.705 141.378,298.705 141.378,296.856 141.378,296.856
			129.361,296.856 129.361,296.856 129.361,207.192 129.361,207.192 141.378,207.192 141.378,207.192 141.378,205.343
			141.378,205.343 127.513,205.343 127.513,205.343 127.513,390.217 127.513,390.217 141.378,390.217 		"/>
	</g>
	<g id="HATCH_2_">
		<polygon fill-rule="evenodd" clip-rule="evenodd" points="288.29,390.217 291.588,390.217 291.588,390.217 291.588,205.343
			291.588,205.343 289.74,205.343 289.74,205.343 289.74,388.817 289.74,388.817 220.937,205.343 220.937,205.343 217.639,205.343
			217.639,205.343 217.639,390.217 217.639,390.217 219.487,390.217 219.487,390.217 219.487,206.743 219.487,206.743
			253.626,297.78 253.626,297.78 288.29,390.217 		"/>
	</g>
	<g id="HATCH_3_">
		<path fill-rule="evenodd" clip-rule="evenodd" d="M424.738,390.136l7.404-0.593l0,0l7.331-1.196l0,0l7.259-1.789l0,0l7.047-2.348
			l0,0l6.831-2.916l0,0l6.619-3.474l0,0l6.281-3.966l0,0l5.935-4.466l0,0l5.597-4.958l0,0l5.148-5.354l0,0l4.694-5.757l0,0
			l4.246-6.152l0,0l3.719-6.431l0,0l3.18-6.712l0,0l2.651-6.99l0,0l2.071-7.133l0,0l1.475-7.231l0,0l0.896-7.374l0,0l0.315-7.517
			l0,0l-0.315-7.517l0,0l-0.896-7.374l0,0l-1.475-7.231l0,0l-2.071-7.133l0,0l-2.651-6.99l0,0l-3.18-6.712l0,0l-3.719-6.43l0,0
			l-4.246-6.152l0,0l-4.694-5.757l0,0l-5.148-5.354l0,0l-5.597-4.958l0,0l-5.935-4.466l0,0l-6.281-3.965l0,0l-6.619-3.474l0,0
			l-6.831-2.916l0,0l-7.047-2.348l0,0l-7.259-1.789l0,0l-7.331-1.197l0,0l-7.404-0.592l0,0h-7.476l0,0l-7.404,0.592l0,0
			l-7.331,1.197l0,0l-7.259,1.789l0,0l-7.047,2.348l0,0l-6.832,2.916l0,0l-6.619,3.474l0,0l-6.281,3.965l0,0l-5.935,4.466l0,0
			l-5.596,4.958l0,0l-5.149,5.354l0,0l-4.694,5.757l0,0l-4.247,6.152l0,0l-3.718,6.43l0,0l-3.179,6.712l0,0l-2.651,6.99l0,0
			l-2.071,7.133l0,0l-1.475,7.231l0,0l-0.896,7.374l0,0l-0.316,7.517l0,0l0.316,7.517l0,0l0.896,7.374l0,0l1.475,7.231l0,0
			l2.071,7.133l0,0l2.651,6.99l0,0l3.179,6.712l0,0l3.718,6.431l0,0l4.247,6.152l0,0l4.694,5.757l0,0l5.149,5.354l0,0l5.596,4.958
			l0,0l5.935,4.466l0,0l6.281,3.966l0,0l6.619,3.474l0,0l6.832,2.916l0,0l7.047,2.348l0,0l7.259,1.789l0,0l7.331,1.196l0,0
			l7.404,0.593l0,0H421l0,0H424.738L424.738,390.136z M424.496,384.133h-6.991l0,0l-6.923-0.554l0,0l-6.854-1.119l0,0l-6.786-1.673
			l0,0l-6.589-2.194l0,0l-6.388-2.727l0,0l-6.189-3.249l0,0l-5.873-3.708l0,0l-5.549-4.176l0,0l-5.232-4.635l0,0l-4.815-5.006l0,0
			l-4.388-5.383l0,0l-3.971-5.752l0,0l-3.476-6.013l0,0l-2.973-6.276l0,0l-2.479-6.535l0,0l-1.937-6.67l0,0l-1.379-6.761l0,0
			l-0.837-6.895l0,0l-0.295-7.028l0,0l0.295-7.028l0,0l0.837-6.895l0,0l1.379-6.761l0,0l1.937-6.669l0,0l2.479-6.536l0,0
			l2.973-6.277l0,0l3.476-6.012l0,0l3.971-5.753l0,0l4.388-5.382l0,0l4.815-5.006l0,0l5.232-4.635l0,0l5.549-4.176l0,0l5.873-3.708
			l0,0l6.189-3.249l0,0l6.388-2.727l0,0l6.589-2.195l0,0l6.786-1.673l0,0l6.854-1.119l0,0l6.923-0.554l0,0h6.991l0,0l6.923,0.554
			l0,0l6.854,1.119l0,0l6.787,1.673l0,0l6.589,2.195l0,0l6.388,2.727l0,0l6.189,3.249l0,0l5.872,3.708l0,0l5.549,4.176l0,0
			l5.232,4.635l0,0l4.814,5.006l0,0l4.389,5.382l0,0l3.971,5.753l0,0l3.477,6.012l0,0l2.973,6.277l0,0l2.479,6.536l0,0l1.938,6.669
			l0,0l1.379,6.761l0,0l0.837,6.895l0,0l0.295,7.028l0,0l-0.295,7.028l0,0l-0.837,6.895l0,0l-1.379,6.761l0,0l-1.938,6.67l0,0
			l-2.479,6.535l0,0l-2.973,6.276l0,0l-3.477,6.013l0,0l-3.971,5.752l0,0l-4.389,5.383l0,0l-4.814,5.006l0,0l-5.232,4.635l0,0
			l-5.549,4.176l0,0l-5.872,3.708l0,0l-6.189,3.249l0,0l-6.388,2.727l0,0l-6.589,2.194l0,0l-6.787,1.673l0,0l-6.854,1.119l0,0
			L424.496,384.133L424.496,384.133z"/>
	</g>
	<g id="HATCH_4_">
		<path fill-rule="evenodd" clip-rule="evenodd" d="M550.412,390.217h1.849l0,0v-91.512l0,0h16.639l0,0l6.733-0.35l0,0l6.54-1.008
			l0,0l6.393-1.681l0,0l6.108-2.311l0,0l5.729-2.919l0,0l5.275-3.473l0,0l4.732-3.988l0,0l4.134-4.435l0,0l3.461-4.826l0,0
			l2.753-5.139l0,0l1.987-5.383l0,0l1.211-5.544l0,0l0.4-5.626l0,0l-0.4-5.626l0,0l-1.211-5.544l0,0l-1.987-5.382l0,0l-2.753-5.139
			l0,0l-3.461-4.826l0,0l-4.134-4.435l0,0l-4.732-3.988l0,0l-5.275-3.473l0,0l-5.729-2.919l0,0l-6.108-2.31l0,0l-6.393-1.681l0,0
			l-6.54-1.008l0,0l-6.733-0.35l0,0h-18.487l0,0v92.437l0,0V390.217L550.412,390.217z M568.899,296.856H552.26l0,0v-89.664l0,0
			h16.639l0,0l6.545,0.34l0,0l6.353,0.979l0,0l6.206,1.632l0,0l5.924,2.24l0,0l5.547,2.826l0,0l5.099,3.356l0,0l4.563,3.846l0,0
			l3.979,4.267l0,0l3.322,4.631l0,0l2.636,4.921l0,0l1.899,5.142l0,0l1.155,5.289l0,0l0.382,5.363l0,0l-0.382,5.363l0,0
			l-1.155,5.289l0,0l-1.899,5.143l0,0l-2.636,4.92l0,0l-3.322,4.631l0,0l-3.979,4.267l0,0l-4.563,3.846l0,0l-5.099,3.356l0,0
			l-5.547,2.827l0,0l-5.924,2.24l0,0l-6.206,1.632l0,0l-6.353,0.978l0,0L568.899,296.856L568.899,296.856z"/>
	</g>
	<g id="HATCH_5_">
		<polygon fill-rule="evenodd" clip-rule="evenodd" points="692.302,390.217 692.302,205.343 692.302,205.343 690.454,205.343
			690.454,205.343 690.454,390.217 690.454,390.217 692.302,390.217 		"/>
	</g>
	<g id="HATCH_6_">
		<path fill-rule="evenodd" clip-rule="evenodd" d="M839.231,390.217h2.357l0,0l-36.975-184.874l0,0l-36.975,184.874l0,0h2.356l0,0
			l12.244-61.224l0,0h44.747l0,0L839.231,390.217L839.231,390.217z M827.088,327.145h-44.949l0,0l22.475-112.375l0,0l16.602,83.01
			l0,0L827.088,327.145L827.088,327.145z"/>
	</g>
	<g id="HATCH_7_">
		<path fill-rule="evenodd" clip-rule="evenodd" d="M421,542.735l18.306-0.682l0,0l18.202-2.055l0,0l18-3.402l0,0l17.693-4.744l0,0
			l17.292-6.047l0,0l16.788-7.328l0,0l16.197-8.558l0,0l15.51-9.748l0,0l14.74-10.876l0,0l13.883-11.951l0,0l12.955-12.95l0,0
			l11.946-13.887l0,0l10.881-14.738l0,0l9.743-15.512l0,0l8.563-16.194l0,0l7.323-16.791l0,0l6.052-17.29l0,0l4.738-17.694l0,0
			l3.409-17.999l0,0l2.045-18.152l0,0l0.691-18.356l0,0l-0.691-18.356l0,0l-2.045-18.152l0,0l-3.409-17.999l0,0l-4.738-17.695l0,0
			l-6.052-17.29l0,0l-7.323-16.791l0,0l-8.563-16.194l0,0l-9.743-15.512l0,0l-10.881-14.737l0,0l-11.946-13.887l0,0l-12.955-12.951
			l0,0l-13.883-11.951l0,0l-14.74-10.876l0,0l-15.51-9.748l0,0l-16.197-8.557l0,0l-16.788-7.328l0,0l-17.292-6.047l0,0
			l-17.693-4.744l0,0l-18-3.403l0,0l-18.202-2.054l0,0L421,52.825l0,0l-18.306,0.682l0,0l-18.203,2.054l0,0l-17.999,3.403l0,0
			l-17.694,4.744l0,0l-17.292,6.047l0,0l-16.789,7.328l0,0l-16.197,8.557l0,0l-15.509,9.748l0,0l-14.74,10.876l0,0l-13.883,11.951
			l0,0l-12.955,12.951l0,0l-11.946,13.887l0,0l-10.88,14.737l0,0l-9.744,15.512l0,0l-8.563,16.194l0,0l-7.323,16.791l0,0
			l-6.052,17.29l0,0l-4.738,17.695l0,0l-3.409,17.999l0,0l-2.045,18.152l0,0l-0.691,18.356l0,0l0.691,18.356l0,0l2.045,18.152l0,0
			l3.409,17.999l0,0l4.738,17.694l0,0l6.052,17.29l0,0l7.323,16.791l0,0l8.563,16.194l0,0l9.744,15.512l0,0l10.88,14.738l0,0
			l11.946,13.887l0,0l12.955,12.95l0,0l13.883,11.951l0,0l14.74,10.876l0,0l15.509,9.748l0,0l16.197,8.558l0,0l16.789,7.328l0,0
			l17.292,6.047l0,0l17.694,4.744l0,0l17.999,3.402l0,0l18.203,2.055l0,0L421,542.735L421,542.735z M421,541.812l-18.236-0.68l0,0
			l-18.134-2.046l0,0l-17.932-3.391l0,0l-17.626-4.726l0,0l-17.227-6.025l0,0l-16.725-7.3l0,0l-16.136-8.524l0,0l-15.451-9.712l0,0
			l-14.686-10.835l0,0l-13.83-11.905l0,0l-12.906-12.902l0,0l-11.902-13.835l0,0l-10.839-14.682l0,0l-9.707-15.453l0,0l-8.53-16.134
			l0,0l-7.296-16.728l0,0l-6.03-17.224l0,0l-4.72-17.629l0,0l-3.396-17.931l0,0l-2.037-18.084l0,0l-0.689-18.287l0,0l0.689-18.287
			l0,0l2.037-18.084l0,0l3.396-17.931l0,0l4.72-17.628l0,0l6.03-17.224l0,0l7.296-16.728l0,0l8.53-16.133l0,0l9.707-15.453l0,0
			l10.839-14.682l0,0l11.902-13.834l0,0l12.906-12.902l0,0l13.83-11.906l0,0l14.686-10.835l0,0l15.451-9.711l0,0l16.136-8.525l0,0
			l16.725-7.3l0,0l17.227-6.025l0,0l17.626-4.726l0,0l17.932-3.39l0,0l18.134-2.046l0,0L421,53.75l0,0l18.237,0.68l0,0l18.134,2.046
			l0,0l17.933,3.39l0,0l17.626,4.726l0,0l17.227,6.025l0,0l16.726,7.3l0,0l16.136,8.525l0,0l15.45,9.711l0,0l14.686,10.835l0,0
			l13.83,11.906l0,0l12.906,12.902l0,0l11.902,13.834l0,0l10.839,14.682l0,0l9.706,15.453l0,0l8.53,16.133l0,0l7.296,16.728l0,0
			l6.029,17.224l0,0l4.721,17.628l0,0l3.396,17.931l0,0l2.037,18.084l0,0l0.688,18.287l0,0l-0.688,18.287l0,0l-2.037,18.084l0,0
			l-3.396,17.931l0,0l-4.721,17.629l0,0l-6.029,17.224l0,0l-7.296,16.728l0,0l-8.53,16.134l0,0l-9.706,15.453l0,0l-10.839,14.682
			l0,0l-11.902,13.835l0,0l-12.906,12.902l0,0l-13.83,11.905l0,0l-14.686,10.835l0,0l-15.45,9.712l0,0l-16.136,8.524l0,0
			l-16.726,7.3l0,0l-17.227,6.025l0,0l-17.626,4.726l0,0l-17.933,3.391l0,0l-18.134,2.046l0,0L421,541.812L421,541.812z"/>
	</g>
</g>
<g id="A-DETL-THIN">
	<g id="LINE">

			<line fill="none" stroke="#7F7F7F" stroke-width="0.2551" stroke-linecap="round" stroke-linejoin="round" x1="0.412" y1="205.343" x2="0.412" y2="390.217"/>
	</g>
	<g id="LINE_1_">

			<line fill="none" stroke="#7F7F7F" stroke-width="0.2551" stroke-linecap="round" stroke-linejoin="round" x1="0.412" y1="390.217" x2="2.261" y2="390.217"/>
	</g>
	<g id="LINE_2_">

			<line fill="none" stroke="#7F7F7F" stroke-width="0.2551" stroke-linecap="round" stroke-linejoin="round" x1="2.261" y1="390.217" x2="2.261" y2="300.202"/>
	</g>
	<g id="LINE_3_">

			<line fill="none" stroke="#7F7F7F" stroke-width="0.2551" stroke-linecap="round" stroke-linejoin="round" x1="2.261" y1="300.202" x2="72.022" y2="390.217"/>
	</g>
	<g id="LINE_4_">

			<line fill="none" stroke="#7F7F7F" stroke-width="0.2551" stroke-linecap="round" stroke-linejoin="round" x1="72.022" y1="390.217" x2="74.361" y2="390.217"/>
	</g>
	<g id="LINE_5_">

			<line fill="none" stroke="#7F7F7F" stroke-width="0.2551" stroke-linecap="round" stroke-linejoin="round" x1="74.361" y1="390.217" x2="2.723" y2="297.78"/>
	</g>
	<g id="LINE_6_">

			<line fill="none" stroke="#7F7F7F" stroke-width="0.2551" stroke-linecap="round" stroke-linejoin="round" x1="2.723" y1="297.78" x2="74.361" y2="205.343"/>
	</g>
	<g id="LINE_7_">

			<line fill="none" stroke="#7F7F7F" stroke-width="0.2551" stroke-linecap="round" stroke-linejoin="round" x1="74.361" y1="205.343" x2="72.022" y2="205.343"/>
	</g>
	<g id="LINE_8_">

			<line fill="none" stroke="#7F7F7F" stroke-width="0.2551" stroke-linecap="round" stroke-linejoin="round" x1="72.022" y1="205.343" x2="2.261" y2="295.358"/>
	</g>
	<g id="LINE_9_">

			<line fill="none" stroke="#7F7F7F" stroke-width="0.2551" stroke-linecap="round" stroke-linejoin="round" x1="2.261" y1="295.358" x2="2.261" y2="205.343"/>
	</g>
	<g id="LINE_10_">

			<line fill="none" stroke="#7F7F7F" stroke-width="0.2551" stroke-linecap="round" stroke-linejoin="round" x1="2.261" y1="205.343" x2="0.412" y2="205.343"/>
	</g>
	<g id="LINE_11_">

			<line fill="none" stroke="#7F7F7F" stroke-width="0.2551" stroke-linecap="round" stroke-linejoin="round" x1="141.378" y1="205.343" x2="127.513" y2="205.343"/>
	</g>
	<g id="LINE_12_">

			<line fill="none" stroke="#7F7F7F" stroke-width="0.2551" stroke-linecap="round" stroke-linejoin="round" x1="127.513" y1="205.343" x2="127.513" y2="390.217"/>
	</g>
	<g id="LINE_13_">

			<line fill="none" stroke="#7F7F7F" stroke-width="0.2551" stroke-linecap="round" stroke-linejoin="round" x1="127.513" y1="390.217" x2="141.378" y2="390.217"/>
	</g>
	<g id="LINE_14_">

			<line fill="none" stroke="#7F7F7F" stroke-width="0.2551" stroke-linecap="round" stroke-linejoin="round" x1="141.378" y1="390.217" x2="141.378" y2="388.368"/>
	</g>
	<g id="LINE_15_">

			<line fill="none" stroke="#7F7F7F" stroke-width="0.2551" stroke-linecap="round" stroke-linejoin="round" x1="141.378" y1="388.368" x2="129.361" y2="388.368"/>
	</g>
	<g id="LINE_16_">

			<line fill="none" stroke="#7F7F7F" stroke-width="0.2551" stroke-linecap="round" stroke-linejoin="round" x1="129.361" y1="388.368" x2="129.361" y2="298.705"/>
	</g>
	<g id="LINE_17_">

			<line fill="none" stroke="#7F7F7F" stroke-width="0.2551" stroke-linecap="round" stroke-linejoin="round" x1="129.361" y1="298.705" x2="141.378" y2="298.705"/>
	</g>
	<g id="LINE_18_">

			<line fill="none" stroke="#7F7F7F" stroke-width="0.2551" stroke-linecap="round" stroke-linejoin="round" x1="141.378" y1="298.705" x2="141.378" y2="296.856"/>
	</g>
	<g id="LINE_19_">

			<line fill="none" stroke="#7F7F7F" stroke-width="0.2551" stroke-linecap="round" stroke-linejoin="round" x1="141.378" y1="296.856" x2="129.361" y2="296.856"/>
	</g>
	<g id="LINE_20_">

			<line fill="none" stroke="#7F7F7F" stroke-width="0.2551" stroke-linecap="round" stroke-linejoin="round" x1="129.361" y1="296.856" x2="129.361" y2="207.192"/>
	</g>
	<g id="LINE_21_">

			<line fill="none" stroke="#7F7F7F" stroke-width="0.2551" stroke-linecap="round" stroke-linejoin="round" x1="129.361" y1="207.192" x2="141.378" y2="207.192"/>
	</g>
	<g id="LINE_22_">

			<line fill="none" stroke="#7F7F7F" stroke-width="0.2551" stroke-linecap="round" stroke-linejoin="round" x1="141.378" y1="207.192" x2="141.378" y2="205.343"/>
	</g>
	<g id="LINE_23_">

			<line fill="none" stroke="#7F7F7F" stroke-width="0.2551" stroke-linecap="round" stroke-linejoin="round" x1="217.639" y1="205.343" x2="217.639" y2="390.217"/>
	</g>
	<g id="LINE_24_">

			<line fill="none" stroke="#7F7F7F" stroke-width="0.2551" stroke-linecap="round" stroke-linejoin="round" x1="217.639" y1="390.217" x2="219.487" y2="390.217"/>
	</g>
	<g id="LINE_25_">

			<line fill="none" stroke="#7F7F7F" stroke-width="0.2551" stroke-linecap="round" stroke-linejoin="round" x1="219.487" y1="390.217" x2="219.487" y2="206.743"/>
	</g>
	<g id="LINE_26_">

			<line fill="none" stroke="#7F7F7F" stroke-width="0.2551" stroke-linecap="round" stroke-linejoin="round" x1="219.487" y1="206.743" x2="288.29" y2="390.217"/>
	</g>
	<g id="LINE_27_">

			<line fill="none" stroke="#7F7F7F" stroke-width="0.2551" stroke-linecap="round" stroke-linejoin="round" x1="288.29" y1="390.217" x2="291.588" y2="390.217"/>
	</g>
	<g id="LINE_28_">

			<line fill="none" stroke="#7F7F7F" stroke-width="0.2551" stroke-linecap="round" stroke-linejoin="round" x1="291.588" y1="390.217" x2="291.588" y2="205.343"/>
	</g>
	<g id="LINE_29_">

			<line fill="none" stroke="#7F7F7F" stroke-width="0.2551" stroke-linecap="round" stroke-linejoin="round" x1="291.588" y1="205.343" x2="289.74" y2="205.343"/>
	</g>
	<g id="LINE_30_">

			<line fill="none" stroke="#7F7F7F" stroke-width="0.2551" stroke-linecap="round" stroke-linejoin="round" x1="289.74" y1="205.343" x2="289.74" y2="388.817"/>
	</g>
	<g id="LINE_31_">

			<line fill="none" stroke="#7F7F7F" stroke-width="0.2551" stroke-linecap="round" stroke-linejoin="round" x1="289.74" y1="388.817" x2="220.937" y2="205.343"/>
	</g>
	<g id="LINE_32_">

			<line fill="none" stroke="#7F7F7F" stroke-width="0.2551" stroke-linecap="round" stroke-linejoin="round" x1="220.937" y1="205.343" x2="217.639" y2="205.343"/>
	</g>
	<g id="ARC">
		<path fill="none" stroke="#7F7F7F" stroke-width="0.2551" stroke-linecap="round" stroke-linejoin="round" d="M328.563,297.78
			c0,51.052,41.385,92.437,92.437,92.437c51.051,0,92.437-41.385,92.437-92.437l0,0"/>
	</g>
	<g id="ARC_1_">
		<path fill="none" stroke="#7F7F7F" stroke-width="0.2551" stroke-linecap="round" stroke-linejoin="round" d="M513.437,297.78
			c0-51.052-41.386-92.437-92.437-92.437c-51.052,0-92.437,41.385-92.437,92.437l0,0"/>
	</g>
	<g id="ARC_2_">
		<path fill="none" stroke="#7F7F7F" stroke-width="0.2551" stroke-linecap="round" stroke-linejoin="round" d="M507.428,297.78
			c0-47.733-38.695-86.429-86.428-86.429c-47.733,0-86.429,38.695-86.429,86.429l0,0"/>
	</g>
	<g id="ARC_3_">
		<path fill="none" stroke="#7F7F7F" stroke-width="0.2551" stroke-linecap="round" stroke-linejoin="round" d="M334.571,297.78
			c0,47.733,38.695,86.429,86.429,86.429c47.733,0,86.428-38.695,86.428-86.429l0,0"/>
	</g>
	<g id="LINE_33_">

			<line fill="none" stroke="#7F7F7F" stroke-width="0.2551" stroke-linecap="round" stroke-linejoin="round" x1="550.412" y1="205.343" x2="550.412" y2="390.217"/>
	</g>
	<g id="LINE_34_">

			<line fill="none" stroke="#7F7F7F" stroke-width="0.2551" stroke-linecap="round" stroke-linejoin="round" x1="550.412" y1="390.217" x2="552.26" y2="390.217"/>
	</g>
	<g id="LINE_35_">

			<line fill="none" stroke="#7F7F7F" stroke-width="0.2551" stroke-linecap="round" stroke-linejoin="round" x1="552.26" y1="390.217" x2="552.26" y2="298.705"/>
	</g>
	<g id="LINE_36_">

			<line fill="none" stroke="#7F7F7F" stroke-width="0.2551" stroke-linecap="round" stroke-linejoin="round" x1="552.26" y1="298.705" x2="568.899" y2="298.705"/>
	</g>
	<g id="SPLINE">
		<path fill="none" stroke="#7F7F7F" stroke-width="0.2551" stroke-linecap="round" stroke-linejoin="round" d="M568.899,298.705
			c2.276-0.007,4.523-0.124,6.733-0.35l0,0c2.21-0.226,4.384-0.56,6.54-1.008l0,0c2.156-0.448,4.295-1.011,6.393-1.681l0,0
			c1.049-0.335,2.087-0.697,3.106-1.082l0,0c1.019-0.385,2.018-0.794,3.002-1.229l0,0c0.983-0.434,1.95-0.895,2.906-1.381l0,0
			c0.955-0.487,1.898-1.001,2.822-1.538l0,0c0.924-0.537,1.829-1.097,2.709-1.676l0,0c0.88-0.579,1.734-1.177,2.565-1.797l0,0
			c0.832-0.62,1.641-1.262,2.43-1.927l0,0c0.789-0.665,1.559-1.354,2.304-2.062l0,0c0.744-0.707,1.464-1.433,2.153-2.173l0,0
			c0.69-0.739,1.35-1.492,1.98-2.262l0,0c0.631-0.769,1.233-1.555,1.811-2.36l0,0c0.577-0.805,1.129-1.629,1.65-2.466l0,0
			c0.521-0.837,1.014-1.687,1.474-2.544l0,0c0.459-0.857,0.885-1.721,1.279-2.595l0,0c0.394-0.874,0.755-1.759,1.086-2.656l0,0
			c0.332-0.898,0.633-1.809,0.901-2.727l0,0c0.269-0.918,0.505-1.842,0.707-2.767l0,0c0.202-0.925,0.37-1.849,0.504-2.777l0,0
			c0.134-0.928,0.233-1.859,0.3-2.798l0,0c0.066-0.938,0.101-1.883,0.101-2.829l0,0c0-0.945-0.034-1.89-0.101-2.829l0,0
			c-0.066-0.938-0.166-1.87-0.3-2.798l0,0c-0.134-0.928-0.302-1.853-0.504-2.777l0,0c-0.202-0.924-0.438-1.849-0.707-2.767l0,0
			c-0.269-0.917-0.57-1.829-0.901-2.726l0,0c-0.331-0.898-0.692-1.782-1.086-2.657l0,0c-0.493-1.093-1.036-2.171-1.631-3.236l0,0
			c-0.594-1.066-1.238-2.119-1.926-3.146l0,0c-0.688-1.028-1.418-2.03-2.19-3.003l0,0c-0.772-0.973-1.586-1.917-2.447-2.84l0,0
			c-1.722-1.846-3.632-3.609-5.657-5.216l0,0c-1.014-0.804-2.055-1.568-3.139-2.304l0,0c-1.084-0.736-2.21-1.443-3.365-2.115l0,0
			c-1.155-0.671-2.341-1.306-3.543-1.898l0,0c-1.202-0.592-2.421-1.141-3.672-1.653l0,0c-1.251-0.512-2.533-0.987-3.838-1.422l0,0
			c-1.305-0.435-2.63-0.83-3.962-1.181l0,0c-2.665-0.701-5.357-1.223-8.102-1.574l0,0c-2.744-0.351-5.541-0.531-8.387-0.54"/>
	</g>
	<g id="LINE_37_">

			<line fill="none" stroke="#7F7F7F" stroke-width="0.2551" stroke-linecap="round" stroke-linejoin="round" x1="568.899" y1="205.343" x2="550.412" y2="205.343"/>
	</g>
	<g id="LINE_38_">

			<line fill="none" stroke="#7F7F7F" stroke-width="0.2551" stroke-linecap="round" stroke-linejoin="round" x1="552.26" y1="207.192" x2="568.899" y2="207.192"/>
	</g>
	<g id="SPLINE_1_">
		<path fill="none" stroke="#7F7F7F" stroke-width="0.2551" stroke-linecap="round" stroke-linejoin="round" d="M568.899,207.192
			c2.214,0.007,4.397,0.121,6.545,0.34l0,0c2.147,0.219,4.259,0.543,6.353,0.979l0,0c2.094,0.435,4.17,0.981,6.206,1.632l0,0
			c1.018,0.325,2.025,0.676,3.014,1.05l0,0c0.988,0.373,1.957,0.77,2.91,1.19l0,0c0.952,0.421,1.89,0.867,2.814,1.338l0,0
			c0.925,0.471,1.838,0.969,2.732,1.488l0,0c0.894,0.52,1.77,1.062,2.619,1.621l0,0c0.851,0.56,1.677,1.137,2.479,1.735l0,0
			c0.803,0.599,1.583,1.217,2.344,1.859l0,0c0.761,0.642,1.503,1.306,2.22,1.987l0,0c0.718,0.682,1.41,1.381,2.074,2.092l0,0
			c0.663,0.711,1.298,1.436,1.904,2.175l0,0c0.606,0.739,1.186,1.494,1.739,2.266l0,0c0.554,0.772,1.083,1.563,1.583,2.365l0,0
			c0.5,0.802,0.971,1.617,1.41,2.438l0,0c0.44,0.82,0.849,1.647,1.226,2.483l0,0c0.376,0.836,0.723,1.681,1.039,2.539l0,0
			c0.316,0.857,0.604,1.727,0.86,2.603l0,0c0.256,0.875,0.481,1.758,0.674,2.64l0,0c0.193,0.882,0.354,1.764,0.481,2.649l0,0
			c0.128,0.885,0.223,1.773,0.286,2.667l0,0c0.063,0.895,0.096,1.795,0.096,2.695l0,0c0,0.9-0.032,1.801-0.096,2.695l0,0
			c-0.063,0.894-0.158,1.783-0.286,2.667l0,0c-0.128,0.885-0.288,1.767-0.481,2.649l0,0c-0.192,0.882-0.418,1.764-0.674,2.64l0,0
			c-0.257,0.875-0.544,1.745-0.86,2.603l0,0c-0.316,0.858-0.662,1.703-1.039,2.539l0,0c-0.472,1.046-0.992,2.078-1.561,3.098l0,0
			c-0.569,1.021-1.188,2.03-1.847,3.016l0,0c-0.659,0.985-1.36,1.947-2.102,2.882l0,0c-0.742,0.935-1.525,1.842-2.354,2.73l0,0
			c-1.657,1.777-3.497,3.477-5.452,5.026l0,0c-0.978,0.775-1.983,1.513-3.03,2.224l0,0c-1.048,0.711-2.137,1.396-3.254,2.045l0,0
			c-1.118,0.65-2.266,1.265-3.43,1.838l0,0c-1.164,0.573-2.345,1.104-3.558,1.601l0,0c-1.213,0.496-2.457,0.957-3.723,1.379l0,0
			c-1.266,0.422-2.552,0.806-3.846,1.146l0,0c-2.587,0.68-5.201,1.187-7.867,1.528l0,0c-2.666,0.341-5.384,0.516-8.151,0.525"/>
	</g>
	<g id="LINE_39_">

			<line fill="none" stroke="#7F7F7F" stroke-width="0.2551" stroke-linecap="round" stroke-linejoin="round" x1="568.899" y1="296.856" x2="552.26" y2="296.856"/>
	</g>
	<g id="LINE_40_">

			<line fill="none" stroke="#7F7F7F" stroke-width="0.2551" stroke-linecap="round" stroke-linejoin="round" x1="552.26" y1="296.856" x2="552.26" y2="207.192"/>
	</g>
	<g id="LINE_41_">

			<line fill="none" stroke="#7F7F7F" stroke-width="0.2551" stroke-linecap="round" stroke-linejoin="round" x1="690.454" y1="390.217" x2="692.302" y2="390.217"/>
	</g>
	<g id="LINE_42_">

			<line fill="none" stroke="#7F7F7F" stroke-width="0.2551" stroke-linecap="round" stroke-linejoin="round" x1="692.302" y1="390.217" x2="692.302" y2="205.343"/>
	</g>
	<g id="LINE_43_">

			<line fill="none" stroke="#7F7F7F" stroke-width="0.2551" stroke-linecap="round" stroke-linejoin="round" x1="692.302" y1="205.343" x2="690.454" y2="205.343"/>
	</g>
	<g id="LINE_44_">

			<line fill="none" stroke="#7F7F7F" stroke-width="0.2551" stroke-linecap="round" stroke-linejoin="round" x1="690.454" y1="205.343" x2="690.454" y2="390.217"/>
	</g>
	<g id="LINE_45_">

			<line fill="none" stroke="#7F7F7F" stroke-width="0.2551" stroke-linecap="round" stroke-linejoin="round" x1="804.614" y1="205.343" x2="767.638" y2="390.217"/>
	</g>
	<g id="LINE_46_">

			<line fill="none" stroke="#7F7F7F" stroke-width="0.2551" stroke-linecap="round" stroke-linejoin="round" x1="767.638" y1="390.217" x2="769.996" y2="390.217"/>
	</g>
	<g id="LINE_47_">

			<line fill="none" stroke="#7F7F7F" stroke-width="0.2551" stroke-linecap="round" stroke-linejoin="round" x1="769.996" y1="390.217" x2="782.24" y2="328.993"/>
	</g>
	<g id="LINE_48_">

			<line fill="none" stroke="#7F7F7F" stroke-width="0.2551" stroke-linecap="round" stroke-linejoin="round" x1="782.24" y1="328.993" x2="826.987" y2="328.993"/>
	</g>
	<g id="LINE_49_">

			<line fill="none" stroke="#7F7F7F" stroke-width="0.2551" stroke-linecap="round" stroke-linejoin="round" x1="826.987" y1="328.993" x2="839.232" y2="390.217"/>
	</g>
	<g id="LINE_50_">

			<line fill="none" stroke="#7F7F7F" stroke-width="0.2551" stroke-linecap="round" stroke-linejoin="round" x1="839.232" y1="390.217" x2="841.588" y2="390.217"/>
	</g>
	<g id="LINE_51_">

			<line fill="none" stroke="#7F7F7F" stroke-width="0.2551" stroke-linecap="round" stroke-linejoin="round" x1="841.588" y1="390.217" x2="804.614" y2="205.343"/>
	</g>
	<g id="LINE_52_">

			<line fill="none" stroke="#7F7F7F" stroke-width="0.2551" stroke-linecap="round" stroke-linejoin="round" x1="827.088" y1="327.145" x2="782.138" y2="327.145"/>
	</g>
	<g id="LINE_53_">

			<line fill="none" stroke="#7F7F7F" stroke-width="0.2551" stroke-linecap="round" stroke-linejoin="round" x1="782.138" y1="327.145" x2="804.614" y2="214.77"/>
	</g>
	<g id="LINE_54_">

			<line fill="none" stroke="#7F7F7F" stroke-width="0.2551" stroke-linecap="round" stroke-linejoin="round" x1="804.614" y1="214.77" x2="827.088" y2="327.145"/>
	</g>
	<g id="ARC_4_">
		<path fill="none" stroke="#7F7F7F" stroke-width="0.2551" stroke-linecap="round" stroke-linejoin="round" d="M665.034,297.78
			c0-134.776-109.258-244.034-244.034-244.034S176.966,163.004,176.966,297.78l0,0"/>
	</g>
	<g id="ARC_5_">
		<path fill="none" stroke="#7F7F7F" stroke-width="0.2551" stroke-linecap="round" stroke-linejoin="round" d="M176.966,297.78
			c0,134.776,109.258,244.033,244.034,244.033S665.034,432.557,665.034,297.78l0,0"/>
	</g>
	<g id="ARC_6_">
		<path fill="none" stroke="#7F7F7F" stroke-width="0.2551" stroke-linecap="round" stroke-linejoin="round" d="M176.042,297.78
			c0,135.286,109.671,244.958,244.958,244.958S665.958,433.066,665.958,297.78l0,0"/>
	</g>
	<g id="ARC_7_">
		<path fill="none" stroke="#7F7F7F" stroke-width="0.2551" stroke-linecap="round" stroke-linejoin="round" d="M665.958,297.78
			c0-135.287-109.672-244.958-244.958-244.958S176.042,162.494,176.042,297.78l0,0"/>
	</g>
</g>
</svg>
