<?xml version="1.0" encoding="utf-8"?>
<!-- Generator: Adobe Illustrator 14.0.0, SVG Export Plug-In . SVG Version: 6.00 Build 43363)  -->
<!DOCTYPE svg PUBLIC "-//W3C//DTD SVG 1.1//EN" "http://www.w3.org/Graphics/SVG/1.1/DTD/svg11.dtd">
<svg version="1.1" id="Ebene_1" xmlns="http://www.w3.org/2000/svg" xmlns:xlink="http://www.w3.org/1999/xlink" x="0px" y="0px"
	 width="500px" height="390px" viewBox="0 0 500 390" enable-background="new 0 0 500 390" xml:space="preserve">
<path fill="#1A171B" stroke="#000000" d="M375.511,203.992c27.419-6.635,48.986-19.201,64.628-37.737
	c15.643-18.501,23.444-39.654,23.444-63.433c0-32.053-10.71-57.075-32.13-75.041c-21.457-17.965-50.68-26.939-87.669-26.939h-77.38
	h-32.758h-77.392c-36.988,0-66.203,8.975-87.64,26.939c-0.669,0.562-1.33,1.13-1.979,1.705c-5.195,4.602-9.719,9.645-13.573,15.127
	c-0.482,0.686-0.953,1.378-1.414,2.078c-10.136,15.381-15.203,34.095-15.203,56.131c0,13.375,2.48,25.921,7.43,37.629
	c3.849,9.108,9.192,17.71,16.023,25.804c15.661,18.536,37.183,31.103,64.602,37.737L0.02,390.842h56.587l114.269-177.177h50.239
	v177.177h12.532h32.758h12.511V213.665h50.22L443.45,390.842h56.569L375.511,203.992z M221.114,174.141h-57.13
	c-23.912,0-43.347-6.503-58.252-19.495c-14.905-12.99-22.35-29.335-22.35-49.05c0-43.486,26.5-65.229,79.489-65.229h58.243V174.141z
	 M278.915,174.141V40.366h58.245c52.998,0,79.496,21.743,79.496,65.229c0,19.715-7.471,36.06-22.377,49.05
	c-14.905,12.992-34.301,19.495-58.225,19.495H278.915z"/>
</svg>
