<svg xmlns="http://www.w3.org/2000/svg" viewBox="-296.982 356 7358.299 4289.988">
  <defs>
    <style>
      .cls-1, .cls-3, .cls-4 {
        fill: none;
      }

      .cls-1, .cls-2, .cls-3, .cls-4 {
        stroke: #fff;
      }

      .cls-1, .cls-2 {
        stroke-width: 20px;
      }

      .cls-2 {
        fill: rgba(0,0,0,0);
      }

      .cls-3 {
        stroke-width: 10px;
      }

      .cls-4 {
        stroke-width: 40px;
      }
    </style>
  </defs>
  <g id="group-8" transform="translate(-618 171)">
    <g id="group-1" transform="translate(-5)">
      <line id="line-1" class="cls-1" y2="1619" transform="translate(336.018 1520.5)"/>
      <line id="line-2" class="cls-1" y1="810.127" x2="626.007" transform="translate(336.018 1524.471)"/>
      <line id="line-3" class="cls-1" x2="626.007" y2="800.921" transform="translate(336.018 2334.597)"/>
    </g>
    <line id="line-4" class="cls-1" y1="1617" transform="translate(6368.5 1521.5)"/>
    <g id="group-7">
      <line id="line-4-2" data-name="line-4" class="cls-1" y1="1619" transform="translate(2227.5 1520.5)"/>
      <line id="line-4-3" data-name="line-4" class="cls-1" y1="1617" transform="translate(2862.5 1522.5)"/>
      <line id="line-4-4" data-name="line-4" class="cls-1" x1="635" y1="1610" transform="translate(2227.5 1525.5)"/>
    </g>
    <g id="group-2" transform="translate(-5)">
      <line id="line-4-5" data-name="line-4" class="cls-1" x1="0.236" y1="1618" transform="translate(1440.5 1521.5)"/>
      <path id="line-5" class="cls-2" d="M133.914,0H0" transform="translate(1430.5 1530.677)"/>
      <path id="line-6" class="cls-2" d="M119.678,0H0" transform="translate(1444.736 2334.597)"/>
      <path id="line-7" class="cls-2" d="M119.678,0H0" transform="translate(1444.736 3129.518)"/>
    </g>
    <path id="ellipse-1" class="cls-3" d="M2144.994,5C3326.88,5,4284.988,963.108,4284.988,2144.994S3326.88,4284.988,2144.994,4284.988,5,3326.88,5,2144.994,963.108,5,2144.994,5Z" transform="translate(1854.609 185)"/>
    <path id="ellipse-2" class="cls-4" d="M805.5,20C1239.32,20,1591,371.68,1591,805.5S1239.32,1591,805.5,1591,20,1239.32,20,805.5,371.68,20,805.5,20Z" transform="translate(3194 1525)"/>
    <g id="group-5" transform="translate(-5)">
      <line id="line-4-6" data-name="line-4" class="cls-1" y1="1605" x2="316" transform="translate(7047.5 1533.5)"/>
      <path id="line-4-7" data-name="line-4" class="cls-1" d="M311,1605,0,0" transform="translate(7363.5 1533.5)"/>
      <path id="line-8" class="cls-2" d="M0,0H408" transform="translate(7157.5 2594.5)"/>
    </g>
    <g id="group-4" transform="translate(-5)">
      <line id="line-4-8" data-name="line-4" class="cls-1" y1="1617" transform="translate(5141.5 1521.5)"/>
      <line id="line-9" class="cls-1" x2="207" transform="translate(5141.5 1531.5)"/>
      <line id="line-9-2" data-name="line-9" class="cls-1" x2="209" transform="translate(5141.5 2325.5)"/>
      <path id="line-10" class="cls-2" d="M-.4,2.384C25.544,1.592,65.009,7.29,93.285,14.166,153,28.686,203.6,54.16,256.243,92.327c110.85,76.761,170.194,195.783,170.194,308.063,0,80.227-33.333,164.044-90.975,230.323C250.33,728.6,116.9,793.491.007,796.3" transform="translate(5348.896 1529.203)"/>
    </g>
  </g>
</svg>
